#N canvas 881 119 567 321 10;
#X obj 246 66 gemhead;
#X obj 246 204 pix_film;
#X obj 246 227 pix_texture;
#X obj 246 252 square 3;
#X obj 173 109 openpanel;
#X msg 173 131 open \$1;
#X obj 173 66 bng 15 250 50 0 empty empty empty 17 7 0 10 -257985 -1
-1;
#X obj 246 109 t a b;
#X obj 291 147 f;
#X obj 326 146 + 1;
#X floatatom 322 183 5 0 0 0 - - -;
#X obj 291 172 %;
#X text 35 33 1 Create window;
#X text 171 36 2 Load video;
#X msg 36 59 create \, 1;
#X obj 36 82 gemwin 30;
#N canvas 1237 382 450 300 loop 1;
#X obj 256 119 t a b;
#X obj 301 157 f;
#X obj 336 156 + 1;
#X floatatom 332 193 5 0 0 0 - - -;
#X obj 301 182 %;
#X obj 185 0 inlet;
#X connect 0 1 1 0;
#X connect 1 0 2 0;
#X connect 1 0 4 0;
#X connect 2 0 1 1;
#X connect 3 0 4 1;
#X connect 5 0 0 0;
#X restore 508 235 pd loop;
#X connect 0 0 7 0;
#X connect 1 0 2 0;
#X connect 1 1 10 0;
#X connect 2 0 3 0;
#X connect 4 0 5 0;
#X connect 5 0 1 0;
#X connect 6 0 4 0;
#X connect 7 0 1 0;
#X connect 7 1 8 0;
#X connect 8 0 9 0;
#X connect 8 0 11 0;
#X connect 9 0 8 1;
#X connect 10 0 11 1;
#X connect 11 0 1 1;
#X connect 14 0 15 0;
