#N canvas 987 123 852 580 10;
#X obj 71 47 gemhead 2;
#X obj 85 78 bng 15 250 50 0 empty empty empty 17 7 0 10 -262144 -1
-1;
#X obj 85 109 openpanel;
#X obj 71 226 pix_film;
#X obj 83 428 pix_texture;
#X obj 83 466 rectangle 4 3;
#X msg 116 191 auto 1;
#X obj 146 227 t f;
#X obj 548 180 gemwin;
#X msg 498 94 create \, 1;
#X msg 438 58 reset \, dimen 640 360 \, create \, 1;
#X msg 548 124 0 \, destroy;
#X msg 85 144 open \$1;
#X obj 250 192 hsl 128 15 0 1 0 0 empty empty empty -2 -8 0 10 -262144
-1 -1 12700 1;
#X floatatom 207 192 5 0 0 0 - - -;
#X obj 83 269 alpha;
#X obj 251 214 hsl 128 15 0 1 0 0 empty empty empty -2 -8 0 10 -262144
-1 -1 12700 1;
#X floatatom 208 214 5 0 0 0 - - -;
#X obj 250 237 hsl 128 15 0 1 0 0 empty empty empty -2 -8 0 10 -262144
-1 -1 12700 1;
#X floatatom 207 237 5 0 0 0 - - -;
#X obj 257 289 hsl 128 15 0 1 0 0 empty empty empty -2 -8 0 10 -262144
-1 -1 12700 1;
#X floatatom 207 275 5 0 0 0 - - -;
#X obj 83 384 colorRGB;
#X msg 644 117 color 1 0.5 0;
#X msg 666 151 color 1 1 1;
#X msg 702 189 color 0 0 0;
#X connect 0 0 3 0;
#X connect 1 0 2 0;
#X connect 2 0 12 0;
#X connect 3 0 15 0;
#X connect 3 2 7 0;
#X connect 4 0 5 0;
#X connect 6 0 3 0;
#X connect 7 0 3 1;
#X connect 9 0 8 0;
#X connect 10 0 8 0;
#X connect 11 0 8 0;
#X connect 12 0 3 0;
#X connect 13 0 14 0;
#X connect 14 0 22 1;
#X connect 15 0 22 0;
#X connect 16 0 17 0;
#X connect 17 0 22 2;
#X connect 18 0 19 0;
#X connect 19 0 22 3;
#X connect 20 0 21 0;
#X connect 21 0 22 4;
#X connect 22 0 4 0;
#X connect 23 0 8 0;
#X connect 24 0 8 0;
#X connect 25 0 8 0;
