#N canvas 419 110 444 408 10;
#X obj 71 47 gemhead 2;
#X obj 85 78 bng 15 250 50 0 empty empty empty 17 7 0 10 -262144 -1
-1;
#X obj 85 122 openpanel;
#X msg 85 163 open \$1;
#X obj 71 266 pix_film;
#X obj 71 319 pix_texture;
#X obj 71 358 rectangle 4 3;
#X msg 116 204 auto 1;
#X obj 146 267 t f;
#X obj 296 168 gemwin;
#X msg 246 82 create \, 1;
#X msg 186 46 reset \, dimen 640 360 \, create \, 1;
#X msg 296 112 0 \, destroy;
#X connect 0 0 4 0;
#X connect 1 0 2 0;
#X connect 2 0 3 0;
#X connect 3 0 4 0;
#X connect 4 0 5 0;
#X connect 4 2 8 0;
#X connect 5 0 6 0;
#X connect 7 0 4 0;
#X connect 8 0 4 1;
#X connect 10 0 9 0;
#X connect 11 0 9 0;
#X connect 12 0 9 0;
