#N canvas 819 31 720 494 10;
#X obj 560 335 gemwin;
#X obj 71 47 gemhead 2;
#X obj 85 78 bng 15 250 50 0 empty empty empty 17 7 0 10 -262144 -1
-1;
#X obj 85 122 openpanel;
#X msg 85 163 open \$1;
#X obj 71 266 pix_film;
#X obj 100 197 tgl 15 0 empty empty empty 17 7 0 10 -262144 -1 -1 1
1;
#X obj 135 390 pix_texture;
#X obj 248 75 bng 15 250 50 0 empty empty empty 17 7 0 10 -262144 -1
-1;
#X obj 248 119 openpanel;
#X msg 248 160 open \$1;
#X obj 234 263 pix_film;
#X obj 263 194 tgl 15 0 empty empty empty 17 7 0 10 -262144 -1 -1 1
1;
#X obj 234 42 gemhead 3;
#X obj 252 317 hsl 128 15 0 1 0 0 empty empty empty -2 -8 0 10 -262144
-1 -1 0 1;
#X obj 137 346 pix_mix 1;
#X obj 142 267 t f;
#X obj 301 263 t f;
#X text 365 14 http://www.beeple-crap.com/vjclips.php;
#X msg 510 249 create \, 1;
#X msg 450 213 reset \, dimen 640 360 \, create \, 1;
#X msg 560 279 0 \, destroy;
#X obj 135 429 rectangle 7 4;
#X obj 450 129 loadbang;
#X msg 100 226 auto 1;
#X msg 263 223 auto 1;
#X connect 1 0 5 0;
#X connect 2 0 3 0;
#X connect 3 0 4 0;
#X connect 4 0 5 0;
#X connect 5 0 15 0;
#X connect 5 2 16 0;
#X connect 6 0 24 0;
#X connect 7 0 22 0;
#X connect 8 0 9 0;
#X connect 9 0 10 0;
#X connect 10 0 11 0;
#X connect 11 0 15 1;
#X connect 11 2 17 0;
#X connect 12 0 25 0;
#X connect 13 0 11 0;
#X connect 14 0 15 2;
#X connect 15 0 7 0;
#X connect 16 0 5 1;
#X connect 17 0 11 1;
#X connect 19 0 0 0;
#X connect 20 0 0 0;
#X connect 21 0 0 0;
#X connect 23 0 20 0;
#X connect 24 0 5 0;
#X connect 25 0 11 0;
