#N canvas 556 102 454 418 10;
#X obj 82 138 gemhead 2;
#X obj 7 86 bng 15 250 50 0 empty empty empty 17 7 0 10 -262144 -1
-1;
#X obj 7 131 openpanel;
#X msg 10 164 open \$1;
#X obj 71 319 pix_texture;
#X msg 246 82 create \, 1;
#X msg 186 46 reset \, dimen 640 360 \, create \, 1;
#X msg 296 112 0 \, destroy;
#X floatatom 166 162 5 -10 10 1 play_speed - -;
#X obj 71 358 rectangle 8 4.5;
#X obj 296 168 gemwin 59.94;
#N canvas 1110 154 450 300 vid_player 1;
#X obj 99 14 inlet;
#X obj 183 218 outlet;
#X obj 148 168 pix_film;
#N canvas 968 610 450 300 loop 1;
#X obj 127 94 t a b;
#X obj 300 117 f;
#X obj 341 117 + 1;
#X floatatom 315 160 5 0 0 0 - - -;
#X obj 300 226 %;
#X obj 128 40 inlet;
#X obj 126 174 outlet;
#X obj 298 258 outlet;
#X obj 313 136 inlet;
#X obj 393 40 inlet;
#X floatatom 381 256 5 0 0 0 - - -;
#X floatatom 344 219 5 0 0 0 - - -;
#X obj 350 268 -;
#X obj 342 195 - 4;
#X connect 0 0 6 0;
#X connect 0 1 1 0;
#X connect 0 1 13 0;
#X connect 1 0 2 0;
#X connect 1 0 4 0;
#X connect 2 0 1 1;
#X connect 3 0 13 0;
#X connect 4 0 7 0;
#X connect 4 0 10 0;
#X connect 5 0 0 0;
#X connect 8 0 3 0;
#X connect 9 0 2 1;
#X connect 10 0 12 0;
#X connect 11 0 4 1;
#X connect 13 0 11 0;
#X restore 147 113 pd loop;
#X obj 80 123 inlet;
#X obj 261 59 inlet;
#X connect 0 0 3 0;
#X connect 2 0 1 0;
#X connect 2 1 3 1;
#X connect 3 0 2 0;
#X connect 3 1 2 1;
#X connect 4 0 2 0;
#X connect 5 0 3 2;
#X restore 72 246 pd vid_player;
#X connect 0 0 11 1;
#X connect 1 0 2 0;
#X connect 2 0 3 0;
#X connect 3 0 11 0;
#X connect 4 0 9 0;
#X connect 5 0 10 0;
#X connect 6 0 10 0;
#X connect 7 0 10 0;
#X connect 8 0 11 2;
#X connect 11 0 4 0;
