#N canvas 819 31 720 494 10;
#X obj 97 60 gemhead 2;
#X obj 17 9 bng 15 250 50 0 empty empty empty 17 7 0 10 -262144 -1
-1;
#X obj 17 37 openpanel;
#X msg 17 78 open \$1;
#X obj 144 455 pix_texture;
#X obj 277 300 hsl 128 15 0.01 1 1 1 empty empty empty -2 -8 0 10 -191407
-1 -1 5900 1;
#X text 365 14 http://www.beeple-crap.com/vjclips.php;
#X msg 555 182 create \, 1;
#X msg 495 146 reset \, dimen 640 360 \, create \, 1;
#X msg 605 212 0 \, destroy;
#X obj 495 62 loadbang;
#X obj 137 346 pix_mix 0.5;
#N canvas 1110 154 450 300 vid_player 0;
#X obj 99 14 inlet;
#X obj 183 218 outlet;
#X obj 148 168 pix_film;
#N canvas 968 610 450 300 loop 0;
#X obj 127 94 t a b;
#X obj 300 117 f;
#X obj 341 117 + 1;
#X floatatom 315 160 5 0 0 0 - - -;
#X obj 300 226 %;
#X obj 128 40 inlet;
#X obj 126 174 outlet;
#X obj 298 258 outlet;
#X obj 313 136 inlet;
#X obj 393 40 inlet;
#X floatatom 381 256 5 0 0 0 - - -;
#X floatatom 344 219 5 0 0 0 - - -;
#X obj 350 268 -;
#X obj 342 195 - 4;
#X connect 0 0 6 0;
#X connect 0 1 1 0;
#X connect 0 1 13 0;
#X connect 1 0 2 0;
#X connect 1 0 4 0;
#X connect 2 0 1 1;
#X connect 3 0 13 0;
#X connect 4 0 7 0;
#X connect 4 0 10 0;
#X connect 5 0 0 0;
#X connect 8 0 3 0;
#X connect 9 0 2 1;
#X connect 10 0 12 0;
#X connect 11 0 4 1;
#X connect 13 0 11 0;
#X restore 147 113 pd loop;
#X obj 80 123 inlet;
#X obj 261 59 inlet;
#X connect 0 0 3 0;
#X connect 2 0 1 0;
#X connect 2 1 3 1;
#X connect 3 0 2 0;
#X connect 3 1 2 1;
#X connect 4 0 2 0;
#X connect 5 0 3 2;
#X restore 17 117 pd vid_player;
#X obj 144 494 rectangle 8 4.5;
#X floatatom 111 188 5 0 0 0 - - -;
#X msg 110 87 1;
#X obj 205 17 bng 15 250 50 0 empty empty empty 17 7 0 10 -262144 -1
-1;
#X obj 205 45 openpanel;
#X msg 205 86 open \$1;
#N canvas 1110 154 450 300 vid_player 0;
#X obj 99 14 inlet;
#X obj 183 218 outlet;
#X obj 148 168 pix_film;
#N canvas 968 610 450 300 loop 0;
#X obj 127 94 t a b;
#X obj 300 117 f;
#X obj 341 117 + 1;
#X floatatom 315 160 5 0 0 0 - - -;
#X obj 300 226 %;
#X obj 128 40 inlet;
#X obj 126 174 outlet;
#X obj 298 258 outlet;
#X obj 313 136 inlet;
#X obj 393 40 inlet;
#X floatatom 381 256 5 0 0 0 - - -;
#X floatatom 344 219 5 0 0 0 - - -;
#X obj 350 268 -;
#X obj 342 195 - 4;
#X connect 0 0 6 0;
#X connect 0 1 1 0;
#X connect 0 1 13 0;
#X connect 1 0 2 0;
#X connect 1 0 4 0;
#X connect 2 0 1 1;
#X connect 3 0 13 0;
#X connect 4 0 7 0;
#X connect 4 0 10 0;
#X connect 5 0 0 0;
#X connect 8 0 3 0;
#X connect 9 0 2 1;
#X connect 10 0 12 0;
#X connect 11 0 4 1;
#X connect 13 0 11 0;
#X restore 147 113 pd loop;
#X obj 80 123 inlet;
#X obj 261 59 inlet;
#X connect 0 0 3 0;
#X connect 2 0 1 0;
#X connect 2 1 3 1;
#X connect 3 0 2 0;
#X connect 3 1 2 1;
#X connect 4 0 2 0;
#X connect 5 0 3 2;
#X restore 205 125 pd vid_player;
#X msg 298 95 1;
#X obj 270 255 pix_info;
#N canvas 1157 603 450 300 kaleidoskope 1;
#X obj 131 36 cnv 15 175 215 empty empty empty 20 12 0 14 -106138 -66577
0;
#X obj 121 254 cnv 15 120 25 empty empty empty 20 12 0 14 -24198 -66577
0;
#X floatatom 139 39 5 0 64 1 segments - -;
#X floatatom 154 60 5 0 0 1 sourceAngle - -;
#X obj 124 259 pix_kaleidoscope;
#X floatatom 185 135 5 0 0 1 outputAngle - -;
#X floatatom 231 231 5 0.1 10 1 sap - -;
#X floatatom 215 215 5 0 1 1 rlp - -;
#X obj 200 194 pack;
#X obj 254 194 t b f;
#X floatatom 200 155 4 0 100 0 - - -;
#X floatatom 252 155 4 0 100 0 - - -;
#X obj 200 174 * 0.01;
#X obj 252 174 * 0.01;
#X obj 170 116 pack;
#X obj 224 116 t b f;
#X floatatom 170 77 4 0 100 0 - - -;
#X floatatom 222 77 4 0 100 0 - - -;
#X obj 170 96 * 0.01;
#X obj 222 96 * 0.01;
#X obj 28 59 inlet;
#X obj 349 277 outlet;
#X connect 2 0 4 1;
#X connect 3 0 4 2;
#X connect 4 0 21 0;
#X connect 5 0 4 4;
#X connect 6 0 4 7;
#X connect 7 0 4 6;
#X connect 8 0 4 5;
#X connect 9 0 8 0;
#X connect 9 1 8 1;
#X connect 10 0 12 0;
#X connect 11 0 13 0;
#X connect 12 0 8 0;
#X connect 13 0 9 0;
#X connect 14 0 4 3;
#X connect 15 0 14 0;
#X connect 15 1 14 1;
#X connect 16 0 18 0;
#X connect 17 0 19 0;
#X connect 18 0 14 0;
#X connect 19 0 15 0;
#X connect 20 0 4 0;
#X restore 19 251 pd kaleidoskope;
#X msg 644 329 color 0 0 0;
#X obj 645 242 bng 15 250 50 0 empty empty empty 17 7 0 10 -262144
-1 -1;
#X obj 343 386 tgl 15 0 empty empty empty 0 -6 0 8 -262144 -1 -1 1
1;
#X obj 424 426 tgl 15 0 empty empty empty 0 -6 0 8 -262144 -1 -1 0
1;
#X msg 424 445 rectangle \$1;
#X obj 351 451 tgl 15 0 empty empty empty 0 -6 0 8 -262144 -1 -1 0
1;
#X obj 424 386 tgl 15 0 empty empty empty 0 -6 0 8 -262144 -1 -1 0
1;
#X msg 351 470 client_storage \$1;
#X msg 424 405 repeat \$1;
#X msg 375 361 env \$1;
#X obj 376 341 hradio 15 1 0 6 empty empty empty 0 -6 0 8 -262144 -1
-1 0;
#X msg 294 415 quality \$1;
#X obj 285 68 gemhead 3;
#X obj 579 356 gemwin 59.94;
#X obj 303 205 pix_movie;
#X connect 0 0 12 1;
#X connect 1 0 2 0;
#X connect 2 0 3 0;
#X connect 3 0 12 0;
#X connect 4 0 13 0;
#X connect 5 0 11 2;
#X connect 7 0 36 0;
#X connect 8 0 36 0;
#X connect 9 0 36 0;
#X connect 10 0 8 0;
#X connect 11 0 4 0;
#X connect 12 0 11 0;
#X connect 15 0 12 2;
#X connect 16 0 17 0;
#X connect 17 0 18 0;
#X connect 18 0 19 0;
#X connect 19 0 11 1;
#X connect 19 0 21 0;
#X connect 20 0 19 2;
#X connect 23 0 36 0;
#X connect 24 0 23 0;
#X connect 25 0 34 0;
#X connect 26 0 27 0;
#X connect 27 0 4 0;
#X connect 28 0 30 0;
#X connect 29 0 31 0;
#X connect 30 0 4 0;
#X connect 31 0 4 0;
#X connect 32 0 4 0;
#X connect 33 0 32 0;
#X connect 34 0 4 0;
#X connect 35 0 19 1;
